# xmcd
#
# Track frame offsets: 
#        150
#        13866
#        28577
#        67069
#        90662
#        101814
#        116176
#        165411
#        167642
#        187632
#
# Disc length: 2785 seconds
#
# Revision: 0
# Processed by: cddbd v1.5.2PL0 Copyright (c) Steve Scherf et al.
# Submitted via: ExactAudioCopy v1.0b1
#
DISCID=7b0adf0a
DTITLE=Stevie Ray Vaughan - Broadcast Collection 83-89 CD3
DYEAR=2017
DGENRE=Blues
TTITLE0=Love Struck Baby
TTITLE1=Tell Me
TTITLE2=Texas Flood
TTITLE3=Wham!
TTITLE4=Introductions
TTITLE5=Stang´s Swang
TTITLE6=Lenny
TTITLE7=Crowd Banter
TTITLE8=Pride And Joy
TTITLE9=Rude Mood
EXTD=
EXTT0=
EXTT1=
EXTT2=
EXTT3=
EXTT4=
EXTT5=
EXTT6=
EXTT7=
EXTT8=
EXTT9=
PLAYORDER=
